<svg width="30" height="30" viewBox="0 0 24 24" fill="none" xmlns="http://www.w3.org/2000/svg">
<path d="M0.5 4C0.5 2.067 2.067 0.5 4 0.5H20C21.933 0.5 23.5 2.067 23.5 4V20C23.5 21.933 21.933 23.5 20 23.5H4C2.067 23.5 0.5 21.933 0.5 20V4Z" fill="white" stroke="#D5D5D5"/>
<path d="M7.80088 8.3999C7.57997 8.3999 7.40088 8.57899 7.40088 8.7999C7.40088 9.02082 7.57996 9.1999 7.80088 9.1999L16.1993 9.1999C16.4203 9.1999 16.5993 9.02082 16.5993 8.7999C16.5993 8.57899 16.4203 8.3999 16.1993 8.3999H7.80088Z" fill="#999999"/>
<path d="M7.40088 11.9999C7.40088 11.779 7.57997 11.5999 7.80088 11.5999L16.1993 11.5999C16.4203 11.5999 16.5993 11.779 16.5993 11.9999C16.5993 12.2208 16.4203 12.3999 16.1993 12.3999L7.80088 12.3999C7.57996 12.3999 7.40088 12.2208 7.40088 11.9999Z" fill="#999999"/>
<path d="M7.40088 15.1999C7.40088 14.979 7.57997 14.7999 7.80088 14.7999L16.1993 14.7999C16.4203 14.7999 16.5993 14.979 16.5993 15.1999C16.5993 15.4208 16.4203 15.5999 16.1993 15.5999L7.80088 15.5999C7.57996 15.5999 7.40088 15.4208 7.40088 15.1999Z" fill="#999999"/>
</svg>
